<svg width="57" height="58" viewBox="0 0 57 58" fill="none" xmlns="http://www.w3.org/2000/svg">
<path d="M9.5 50.375C8.19375 50.375 7.07592 49.9103 6.1465 48.9809C5.21708 48.0515 4.75158 46.9328 4.75 45.625V19.5C4.75 18.1938 5.2155 17.0759 6.1465 16.1465C7.0775 15.2171 8.19533 14.7516 9.5 14.75H19V10C19 8.69375 19.4655 7.57592 20.3965 6.6465C21.3275 5.71708 22.4453 5.25158 23.75 5.25H33.25C34.5562 5.25 35.6749 5.7155 36.6059 6.6465C37.5369 7.5775 38.0016 8.69533 38 10V14.75H47.5C48.8063 14.75 49.9249 15.2155 50.8559 16.1465C51.7869 17.0775 52.2516 18.1953 52.25 19.5V45.625C52.25 46.9313 51.7853 48.0499 50.8559 48.9809C49.9265 49.9119 48.8078 50.3766 47.5 50.375H9.5ZM23.75 14.75H33.25V10H23.75V14.75Z" fill="white"/>
</svg>
