<svg width="58" height="58" viewBox="0 0 58 58" fill="none" xmlns="http://www.w3.org/2000/svg">
<path d="M29 4.83334C25.8264 4.83334 22.6838 5.45843 19.7518 6.67292C16.8198 7.88741 14.1556 9.66751 11.9116 11.9116C7.37944 16.4437 4.83331 22.5906 4.83331 29C4.83331 39.6817 11.7691 48.7442 21.3633 51.9584C22.5716 52.1517 22.9583 51.4025 22.9583 50.75V46.6658C16.2641 48.1158 14.8383 43.4275 14.8383 43.4275C13.7266 40.6242 12.1558 39.875 12.1558 39.875C9.95665 38.3767 12.325 38.425 12.325 38.425C14.7416 38.5942 16.0225 40.9142 16.0225 40.9142C18.125 44.5875 21.6775 43.5 23.055 42.92C23.2725 41.3492 23.9008 40.2858 24.5775 39.6817C19.2125 39.0775 13.5816 36.9992 13.5816 27.7917C13.5816 25.1092 14.5 22.9583 16.0708 21.2425C15.8291 20.6383 14.9833 18.125 16.3125 14.8625C16.3125 14.8625 18.3425 14.21 22.9583 17.3275C24.8675 16.7958 26.9458 16.53 29 16.53C31.0541 16.53 33.1325 16.7958 35.0416 17.3275C39.6575 14.21 41.6875 14.8625 41.6875 14.8625C43.0166 18.125 42.1708 20.6383 41.9291 21.2425C43.5 22.9583 44.4183 25.1092 44.4183 27.7917C44.4183 37.0233 38.7633 39.0533 33.3741 39.6575C34.2441 40.4067 35.0416 41.8808 35.0416 44.1283V50.75C35.0416 51.4025 35.4283 52.1758 36.6608 51.9584C46.255 48.72 53.1666 39.6817 53.1666 29C53.1666 25.8264 52.5416 22.6839 51.3271 19.7518C50.1126 16.8198 48.3325 14.1557 46.0884 11.9116C43.8443 9.66751 41.1802 7.88741 38.2482 6.67292C35.3161 5.45843 32.1736 4.83334 29 4.83334Z" fill="#212121"/>
</svg>
