<svg width="24" height="25" viewBox="0 0 24 25" fill="none" xmlns="http://www.w3.org/2000/svg">
<g clip-path="url(#clip0_11_418)">
<path d="M14.62 3.1619C14.8098 3.215 14.9873 3.30499 15.1423 3.42673C15.2973 3.54846 15.4268 3.69956 15.5234 3.87137C15.62 4.04318 15.6818 4.23234 15.7052 4.42804C15.7286 4.62374 15.7133 4.82214 15.66 5.0119L11.229 20.7989C11.1216 21.182 10.8664 21.5067 10.5195 21.7017C10.1727 21.8966 9.7626 21.9458 9.3795 21.8384C8.99639 21.731 8.67165 21.4758 8.4767 21.1289C8.28176 20.7821 8.23258 20.372 8.34 19.9889L12.771 4.1999C12.8242 4.01018 12.9143 3.8328 13.0361 3.6779C13.1578 3.523 13.3089 3.39361 13.4807 3.29713C13.6525 3.20064 13.8417 3.13895 14.0373 3.11557C14.233 3.0922 14.4313 3.1076 14.621 3.1609L14.62 3.1619ZM7.56 7.1969C7.8409 7.47815 7.99868 7.85939 7.99868 8.2569C7.99868 8.6544 7.8409 9.03565 7.56 9.3169L4.38 12.4999L7.562 15.6819C7.84326 15.9633 8.00122 16.3449 8.00112 16.7427C8.00103 17.1406 7.84289 17.5221 7.5615 17.8034C7.2801 18.0847 6.8985 18.2426 6.50064 18.2425C6.10278 18.2424 5.72126 18.0843 5.44 17.8029L1.197 13.5599C0.916095 13.2786 0.758316 12.8974 0.758316 12.4999C0.758316 12.1024 0.916095 11.7211 1.197 11.4399L5.439 7.1969C5.5783 7.05751 5.7437 6.94693 5.92575 6.87149C6.1078 6.79605 6.30293 6.75722 6.5 6.75722C6.69706 6.75722 6.89219 6.79605 7.07424 6.87149C7.25629 6.94693 7.4207 7.05751 7.56 7.1969ZM16.44 9.3169C16.2926 9.17957 16.1744 9.01397 16.0924 8.82997C16.0105 8.64597 15.9664 8.44735 15.9628 8.24594C15.9593 8.04454 15.9963 7.84448 16.0718 7.6577C16.1472 7.47092 16.2595 7.30126 16.4019 7.15882C16.5444 7.01638 16.714 6.90409 16.9008 6.82865C17.0876 6.75321 17.2876 6.71616 17.489 6.71971C17.6904 6.72327 17.8891 6.76735 18.0731 6.84933C18.2571 6.93132 18.4227 7.04952 18.56 7.1969L22.803 11.4389C23.0842 11.7202 23.2422 12.1017 23.2422 12.4994C23.2422 12.8971 23.0842 13.2786 22.803 13.5599L18.561 17.8029C18.4217 17.9422 18.2564 18.0528 18.0744 18.1282C17.8924 18.2036 17.6973 18.2425 17.5003 18.2425C17.3034 18.2426 17.1083 18.2038 16.9262 18.1285C16.7442 18.0531 16.5788 17.9427 16.4395 17.8034C16.3002 17.6641 16.1896 17.4988 16.1142 17.3168C16.0388 17.1348 15.9999 16.9397 15.9999 16.7427C15.9998 16.5457 16.0386 16.3507 16.1139 16.1686C16.1893 15.9866 16.2997 15.8212 16.439 15.6819L19.621 12.4999L16.44 9.3169Z" fill="#212121"/>
</g>
<defs>
<clipPath id="clip0_11_418">
<rect width="24" height="24" fill="white" transform="translate(0 0.5)"/>
</clipPath>
</defs>
</svg>
