<svg width="75" height="76" viewBox="0 0 75 76" fill="none" xmlns="http://www.w3.org/2000/svg">
<g clip-path="url(#clip0_11_523)">
<path d="M45.2688 10.322C46.0664 10.5464 46.7423 11.0783 47.1478 11.8009C47.5533 12.5234 47.6553 13.3774 47.4313 14.1752L33.5875 63.5127C33.4767 63.9079 33.2892 64.2774 33.0355 64.6001C32.7819 64.9228 32.4673 65.1924 32.1095 65.3935C31.7517 65.5946 31.3578 65.7232 30.9503 65.7721C30.5427 65.821 30.1296 65.7891 29.7344 65.6783C29.3392 65.5675 28.9697 65.3799 28.647 65.1263C28.3243 64.8727 28.0547 64.558 27.8536 64.2002C27.6525 63.8424 27.5238 63.4485 27.4749 63.041C27.4261 62.6335 27.458 62.2204 27.5688 61.8252L41.4125 12.4877C41.5232 12.0921 41.7109 11.7222 41.9647 11.3992C42.2185 11.0763 42.5335 10.8065 42.8916 10.6053C43.2498 10.4042 43.6441 10.2757 44.052 10.227C44.4599 10.1784 44.8734 10.2107 45.2688 10.322ZM22.5219 22.5314C23.1077 23.1174 23.4368 23.9121 23.4368 24.7408C23.4368 25.5694 23.1077 26.3641 22.5219 26.9502L11.475 38.0002L22.5219 49.047C22.8122 49.3372 23.0426 49.6817 23.1998 50.0608C23.357 50.44 23.438 50.8464 23.4381 51.2569C23.4383 51.6673 23.3576 52.0738 23.2006 52.4531C23.0437 52.8324 22.8136 53.177 22.5234 53.4673C22.2333 53.7577 21.8888 53.988 21.5097 54.1453C21.1305 54.3025 20.7241 54.3835 20.3136 54.3836C19.9032 54.3838 19.4967 54.303 19.1174 54.1461C18.7381 53.9892 18.3935 53.7591 18.1031 53.4689L4.84376 40.2095C4.25791 39.6235 3.9288 38.8288 3.9288 38.0002C3.9288 37.1715 4.25791 36.3768 4.84376 35.7908L18.1031 22.5314C18.6892 21.9456 19.4839 21.6165 20.3125 21.6165C21.1411 21.6165 21.9359 21.9456 22.5219 22.5314ZM52.4781 26.9502C52.1797 26.6619 51.9416 26.3171 51.7778 25.9358C51.614 25.5545 51.5278 25.1445 51.5242 24.7295C51.5206 24.3146 51.5997 23.9031 51.7568 23.5191C51.9139 23.135 52.146 22.7861 52.4394 22.4927C52.7328 22.1993 53.0817 21.9672 53.4658 21.8101C53.8498 21.653 54.2613 21.5739 54.6763 21.5775C55.0912 21.5811 55.5013 21.6673 55.8825 21.8311C56.2638 21.9949 56.6086 22.2329 56.8969 22.5314L70.1563 35.7908C70.7421 36.3768 71.0712 37.1715 71.0712 38.0002C71.0712 38.8288 70.7421 39.6235 70.1563 40.2095L56.8969 53.4689C56.3105 54.0549 55.5154 54.3839 54.6864 54.3836C53.8574 54.3833 53.0625 54.0537 52.4766 53.4673C51.8906 52.881 51.5616 52.0858 51.5619 51.2569C51.5622 50.4279 51.8918 49.633 52.4781 49.047L63.525 38.0002L52.4781 26.9502Z" fill="#212121"/>
</g>
<defs>
<clipPath id="clip0_11_523">
<rect width="75" height="75" fill="white" transform="translate(0 0.5)"/>
</clipPath>
</defs>
</svg>
