<svg width="75" height="76" viewBox="0 0 75 76" fill="none" xmlns="http://www.w3.org/2000/svg">
<path d="M49.6781 28.1062C49.9447 28.2602 50.1784 28.4653 50.3657 28.7096C50.5531 28.954 50.6904 29.2329 50.7699 29.5303C50.8494 29.8278 50.8696 30.138 50.8292 30.4433C50.7887 30.7485 50.6886 31.0428 50.5344 31.3093L39.8562 49.7874C39.7035 50.0561 39.4991 50.292 39.2548 50.4813C39.0105 50.6707 38.7312 50.8099 38.4329 50.8909C38.1346 50.9719 37.8232 50.9931 37.5167 50.9532C37.2102 50.9134 36.9146 50.8133 36.6469 50.6588C36.3792 50.5042 36.1447 50.2982 35.957 50.0527C35.7692 49.8072 35.6319 49.5269 35.5529 49.2281C35.4739 48.9293 35.4548 48.6178 35.4966 48.3115C35.5385 48.0053 35.6405 47.7103 35.7969 47.4437L46.4781 28.9624C46.7892 28.4248 47.3009 28.0327 47.9009 27.8721C48.5009 27.7116 49.1401 27.7958 49.6781 28.1062Z" fill="#212121"/>
<path d="M46.8406 12.3283C48.5454 11.0246 50.6968 10.4482 52.825 10.7252C53.7469 10.8502 54.5812 11.1721 55.4125 11.5752C56.2062 11.9658 57.1312 12.5002 58.2375 13.1377L58.3719 13.2158C59.475 13.8502 60.4031 14.3877 61.1375 14.8815C61.9031 15.394 62.6031 15.9533 63.1688 16.694C64.4781 18.3971 65.0563 20.5471 64.775 22.6752C64.6327 23.5782 64.3445 24.4521 63.9219 25.2627C63.5344 26.0564 62.9969 26.9814 62.3594 28.0846L46.3406 55.8033C45.3284 57.6423 43.7999 59.1448 41.9438 60.1252L36.1281 63.3502C35.0969 63.9221 34.1906 64.4252 33.4219 64.7627C32.9029 65.0027 32.3559 65.1769 31.7937 65.2814C31.6147 65.3181 31.4327 65.3391 31.25 65.344H12.5C11.8784 65.344 11.2823 65.097 10.8427 64.6575C10.4032 64.2179 10.1562 63.6218 10.1562 63.0002C10.1562 62.3786 10.4032 61.7825 10.8427 61.3429C11.2823 60.9034 11.8784 60.6564 12.5 60.6564H26.05L26.0312 60.5002C25.9483 59.4867 25.9066 58.4702 25.9062 57.4533L25.7937 50.8064C25.7133 48.7097 26.2501 46.6354 27.3375 44.8408L43.3594 17.1221C43.9938 16.0189 44.5312 15.0908 45.025 14.3564C45.5406 13.5908 46.1 12.8939 46.8375 12.3252M52.2094 15.3689C51.3127 15.2536 50.4067 15.4961 49.6875 16.0439C49.5219 16.1721 49.2906 16.4033 48.9094 16.9721C48.4643 17.6601 48.0401 18.3615 47.6375 19.0752L47.7062 19.1002C48.9062 19.569 50.7 20.4002 53.2687 21.8815C55.8031 23.344 57.3906 24.6065 58.3812 25.5908C59 24.5221 59.4188 23.7908 59.7094 23.1971C60.0094 22.5815 60.0969 22.269 60.125 22.0596C60.2378 21.166 59.9955 20.2638 59.45 19.5471C59.3219 19.3783 59.0906 19.1502 58.5219 18.7658C57.6831 18.23 56.8286 17.7194 55.9594 17.2346C54.7719 16.5471 53.9812 16.0939 53.3469 15.7846C52.7312 15.4846 52.4188 15.3971 52.2094 15.3689ZM55.6437 29.519L55.6531 29.5439L55.675 29.5877L55.7 29.6377L55.6938 29.6283L55.6375 29.5033L55.6437 29.519ZM55.6375 29.5033L55.6344 29.4908V29.4971M55.675 29.6002C55.5179 29.3813 55.3423 29.1764 55.15 28.9877C54.525 28.3533 53.275 27.3002 50.925 25.9408C48.5125 24.5502 46.9313 23.8315 46 23.4658C45.7539 23.3694 45.5048 23.2808 45.2531 23.2002L31.3937 47.1846C30.7328 48.242 30.4121 49.4767 30.475 50.7221L30.5781 56.8096C32.1094 57.0283 33.4656 57.8064 34.4281 58.9283L39.6688 56.0221C40.7804 55.4552 41.6912 54.5608 42.2781 53.4596L55.8719 29.9377C55.8067 29.8381 55.7472 29.7348 55.6938 29.6283L55.675 29.6002Z" fill="#212121"/>
</svg>
