<svg width="65" height="66" viewBox="0 0 65 66" fill="none" xmlns="http://www.w3.org/2000/svg">
<g clip-path="url(#clip0_11_506)">
<path d="M23.1055 66.0078C29.1484 66.0078 34.0234 61.1328 34.0234 55.0898V44.1719H23.1055C17.0625 44.1719 12.1875 49.0469 12.1875 55.0898C12.1875 61.1328 17.0625 66.0078 23.1055 66.0078Z" fill="#0ACF83"/>
<path d="M12.1875 33.2539C12.1875 27.2109 17.0625 22.3359 23.1055 22.3359H34.0234V44.1719H23.1055C17.0625 44.1719 12.1875 39.2969 12.1875 33.2539Z" fill="#A259FF"/>
<path d="M12.1875 11.418C12.1875 5.375 17.0625 0.5 23.1055 0.5H34.0234V22.3359H23.1055C17.0625 22.3359 12.1875 17.4609 12.1875 11.418Z" fill="#F24E1E"/>
<path d="M34.0234 0.5H44.9414C50.9844 0.5 55.8594 5.375 55.8594 11.418C55.8594 17.4609 50.9844 22.3359 44.9414 22.3359H34.0234V0.5Z" fill="#FF7262"/>
<path d="M55.8594 33.2539C55.8594 39.2969 50.9844 44.1719 44.9414 44.1719C38.8984 44.1719 34.0234 39.2969 34.0234 33.2539C34.0234 27.2109 38.8984 22.3359 44.9414 22.3359C50.9844 22.3359 55.8594 27.2109 55.8594 33.2539Z" fill="#1ABCFE"/>
</g>
<defs>
<clipPath id="clip0_11_506">
<rect width="65" height="65" fill="white" transform="translate(0 0.5)"/>
</clipPath>
</defs>
</svg>
