<svg width="65" height="66" viewBox="0 0 65 66" fill="none" xmlns="http://www.w3.org/2000/svg">
<path d="M0.715 1.21509H64.285V64.7856H0.715V1.21509Z" fill="#F0DB4F"/>
<path d="M59.0825 49.6238C58.6168 46.7237 56.7257 44.2878 51.124 42.0163C49.1781 41.122 47.0087 40.4817 46.3623 39.007C46.1327 38.1488 46.1023 37.6654 46.2475 37.1459C46.6644 35.4599 48.6769 34.9344 50.2719 35.4178C51.2992 35.7621 52.2717 36.5538 52.8582 37.8167C55.6014 36.0404 55.5958 36.0521 57.5113 34.8313C56.81 33.744 56.4357 33.2423 55.9767 32.7772C54.3268 30.9343 52.0787 29.9852 48.4834 30.0578L46.6106 30.3001C44.816 30.7535 43.1057 31.6955 42.1027 32.9585C39.0934 36.373 39.9516 42.3489 43.6135 44.8083C47.221 47.5159 52.5205 48.1319 53.1974 50.6638C53.8561 53.7635 50.9194 54.767 48.0005 54.4105C45.8494 53.9631 44.653 52.8698 43.3596 50.8817C40.9789 52.2594 40.9789 52.2594 38.5313 53.667C39.1117 54.9361 39.7216 55.5104 40.6946 56.6098C45.2994 61.2807 56.8227 61.0512 58.8895 53.9814C58.9733 53.7387 59.5298 52.1197 59.0825 49.6238ZM35.2737 30.4321H29.3277L29.3033 45.8046C29.3033 49.0739 29.4724 52.071 28.9407 52.9896C28.0709 54.7964 25.8167 54.5725 24.7894 54.2221C23.7438 53.7082 23.2121 52.9774 22.5961 51.9445C22.427 51.648 22.3001 51.4185 22.2574 51.4007L17.423 54.3612C18.2269 56.0111 19.4111 57.4431 20.928 58.3735C23.1938 59.7334 26.2392 60.1503 29.4242 59.419C31.4971 58.8153 33.2856 57.5645 34.222 55.6607C35.5758 53.1648 35.2853 50.1438 35.2732 46.8024C35.3036 41.3511 35.2737 35.9007 35.2737 30.4321Z" fill="#323330"/>
</svg>
