<svg width="65" height="66" viewBox="0 0 65 66" fill="none" xmlns="http://www.w3.org/2000/svg">
<path d="M32.5 38.7891C35.6972 38.7891 38.2891 36.1972 38.2891 33C38.2891 29.8028 35.6972 27.2109 32.5 27.2109C29.3028 27.2109 26.7109 29.8028 26.7109 33C26.7109 36.1972 29.3028 38.7891 32.5 38.7891Z" fill="#61DAFB"/>
<path d="M54.4883 23.4531C53.3711 23.0469 52.2031 22.6406 50.9844 22.2852C51.2891 21.0664 51.543 19.8477 51.7461 18.6797C52.8125 11.9766 51.6445 7.25391 48.3945 5.42578C47.4297 4.86719 46.3633 4.61328 45.1445 4.61328C41.5898 4.61328 37.0703 7.25391 32.5 11.6719C27.9297 7.25391 23.4102 4.61328 19.8555 4.61328C18.6367 4.61328 17.5703 4.86719 16.6055 5.42578C13.3555 7.30469 12.1875 12.0273 13.2539 18.6797C13.457 19.8477 13.7109 21.0664 14.0156 22.2852C12.7969 22.6406 11.6289 22.9961 10.5117 23.4531C4.16406 25.8906 0.710938 29.2422 0.710938 33C0.710938 36.7578 4.21484 40.1094 10.5117 42.5469C11.6289 42.9531 12.7969 43.3594 14.0156 43.7148C13.7109 44.9336 13.457 46.1523 13.2539 47.3203C12.1875 54.0234 13.3555 58.7461 16.6055 60.5742C17.5703 61.1328 18.6367 61.3867 19.8555 61.3867C23.4609 61.3867 27.9805 58.7461 32.5 54.3281C37.0703 58.7461 41.5898 61.3867 45.1445 61.3867C46.3633 61.3867 47.4297 61.1328 48.3945 60.5742C51.6445 58.6953 52.8125 53.9727 51.7461 47.3203C51.543 46.1523 51.2891 44.9336 50.9844 43.7148C52.2031 43.3594 53.3711 43.0039 54.4883 42.5469C60.8359 40.1094 64.2891 36.7578 64.2891 33C64.2891 29.2422 60.8359 25.8906 54.4883 23.4531ZM46.9727 7.96484C49.0547 9.18359 49.7656 12.9414 48.9023 18.2734C48.75 19.3398 48.4961 20.457 48.1914 21.625C45.5508 21.0156 42.7578 20.6094 39.8125 20.3555C38.0859 17.918 36.3086 15.7344 34.5312 13.7539C38.2891 10.0469 42.0977 7.50781 45.1953 7.50781C45.8555 7.50781 46.4648 7.66016 46.9727 7.96484ZM41.2852 38.0781C40.3711 39.7031 39.3047 41.3281 38.1875 42.9531C36.3086 43.1055 34.4297 43.1562 32.5 43.1562C30.5195 43.1562 28.6406 43.1055 26.8125 42.9531C25.6953 41.3281 24.6797 39.7031 23.7656 38.0781C22.8008 36.4023 21.8867 34.6758 21.0742 33C21.8867 31.3242 22.8008 29.5977 23.7656 27.9219C24.6797 26.2969 25.7461 24.6719 26.8633 23.0469C28.7422 22.8945 30.6211 22.8438 32.5508 22.8438C34.5312 22.8438 36.4102 22.8945 38.2383 23.0469C39.3555 24.6719 40.3711 26.2969 41.2852 27.9219C42.25 29.5977 43.1641 31.3242 43.9766 33C43.1133 34.6758 42.25 36.3516 41.2852 38.0781ZM45.5 36.4023C46.2617 38.1797 46.8711 39.9062 47.4297 41.6328C45.7031 42.0391 43.875 42.3438 41.9453 42.5977C42.5547 41.6328 43.2148 40.6172 43.7734 39.5508C44.3828 38.4844 44.9414 37.418 45.5 36.4023ZM32.5 50.1641C31.2812 48.8438 30.1133 47.4219 28.9961 45.9492C30.1641 46 31.332 46.0508 32.5 46.0508C33.668 46.0508 34.8359 46 36.0039 45.9492C34.8867 47.4219 33.7188 48.8438 32.5 50.1641ZM23.0547 42.5469C21.125 42.293 19.2969 41.9883 17.5703 41.582C18.1289 39.9062 18.7383 38.1289 19.5 36.3516C20.0586 37.3672 20.6172 38.4336 21.2266 39.4492C21.8359 40.5664 22.4453 41.5313 23.0547 42.5469ZM19.5 29.5977C18.7383 27.8203 18.1289 26.0938 17.5703 24.3672C19.2969 23.9609 21.125 23.6562 23.0547 23.4023C22.4453 24.3672 21.7852 25.3828 21.2266 26.4492C20.6172 27.5156 20.0586 28.582 19.5 29.5977ZM32.5 15.8359C33.7188 17.1562 34.8867 18.5781 36.0039 20.0508C34.8359 20 33.668 19.9492 32.5 19.9492C31.332 19.9492 30.1641 20 28.9961 20.0508C30.1133 18.5781 31.2812 17.1562 32.5 15.8359ZM43.7734 26.5L41.9453 23.4531C43.875 23.707 45.7031 24.0117 47.4297 24.418C46.8711 26.0938 46.2617 27.8711 45.5 29.6484C44.9414 28.582 44.3828 27.5156 43.7734 26.5ZM16.0977 18.2734C15.2344 12.9414 15.9453 9.18359 18.0273 7.96484C18.5352 7.66016 19.1445 7.50781 19.8047 7.50781C22.8516 7.50781 26.6602 9.99609 30.4688 13.7539C28.6914 15.6836 26.9141 17.918 25.1875 20.3555C22.2422 20.6094 19.4492 21.0664 16.8086 21.625C16.5039 20.457 16.3008 19.3398 16.0977 18.2734ZM3.55469 33C3.55469 30.6133 6.44922 28.0742 11.5273 26.1953C12.543 25.7891 13.6602 25.4336 14.7773 25.1289C15.5898 27.668 16.6055 30.3594 17.8242 33.0508C16.6055 35.7422 15.5391 38.3828 14.7773 40.9219C7.76953 38.8906 3.55469 35.8438 3.55469 33ZM18.0273 58.0352C15.9453 56.8164 15.2344 53.0586 16.0977 47.7266C16.25 46.6602 16.5039 45.543 16.8086 44.375C19.4492 44.9844 22.2422 45.3906 25.1875 45.6445C26.9141 48.082 28.6914 50.2656 30.4688 52.2461C26.7109 55.9531 22.9023 58.4922 19.8047 58.4922C19.1445 58.4922 18.5352 58.3398 18.0273 58.0352ZM48.9023 47.7266C49.7656 53.0586 49.0547 56.8164 46.9727 58.0352C46.4648 58.3398 45.8555 58.4922 45.1953 58.4922C42.1484 58.4922 38.3398 56.0039 34.5312 52.2461C36.3086 50.3164 38.0859 48.082 39.8125 45.6445C42.7578 45.3906 45.5508 44.9336 48.1914 44.375C48.4961 45.543 48.6992 46.6602 48.9023 47.7266ZM53.4727 39.8047C52.457 40.2109 51.3398 40.5664 50.2227 40.8711C49.4102 38.332 48.3945 35.6406 47.1758 32.9492C48.3945 30.2578 49.4609 27.6172 50.2227 25.0781C57.2305 27.1094 61.4453 30.1562 61.4453 33C61.4453 35.3867 58.5 37.9258 53.4727 39.8047Z" fill="#61DAFB"/>
</svg>
