<svg width="65" height="65" viewBox="0 0 65 65" fill="none" xmlns="http://www.w3.org/2000/svg">
<g clip-path="url(#clip0_11_809)">
<path d="M8.83281 58.2523L3.56641 -0.8125H61.4336L56.1601 58.243L32.4648 64.8125L8.83281 58.2523Z" fill="#E44F26"/>
<path d="M32.5 59.7923L51.6484 54.4837L56.1531 4.01807H32.5V59.7923Z" fill="#F1662A"/>
<path d="M32.5 25.9228H22.9141L22.2531 18.5048H32.5V11.2603H14.3359L14.5094 13.2056L16.2883 33.1673H32.5V25.9228ZM32.5 44.736L32.4672 44.7454L24.4 42.5681L23.8844 36.7907H16.6117L17.6266 48.1626L32.4672 52.2829L32.5 52.2735V44.736Z" fill="#EBEBEB"/>
<path d="M32.4742 25.9228V33.1673H41.3945L40.5555 42.5634L32.4742 44.7431V52.2806L47.3266 48.1626L47.4344 46.9392L49.1359 27.8681L49.3141 25.9228H32.4742ZM32.4742 11.2603V18.5048H49.9726L50.118 16.8782L50.4484 13.2056L50.6219 11.2603H32.4742Z" fill="white"/>
</g>
<defs>
<clipPath id="clip0_11_809">
<rect width="65" height="65" fill="white"/>
</clipPath>
</defs>
</svg>
