<svg width="65" height="65" viewBox="0 0 65 65" fill="none" xmlns="http://www.w3.org/2000/svg">
<g clip-path="url(#clip0_8_349)">
<path d="M8.83282 58.2523L3.56876 -0.8125H61.4313L56.1602 58.243L32.4648 64.8125L8.83282 58.2523Z" fill="#1572B6"/>
<path d="M32.5 59.7923L51.6484 54.4837L56.1531 4.01807H32.5V59.7923Z" fill="#33A9DC"/>
<path d="M32.5 25.4164H42.0859L42.7469 17.9984H32.5V10.7539H50.6641L50.4906 12.6969L48.7117 32.6609H32.5V25.4164Z" fill="white"/>
<path d="M32.5445 44.2296L32.5117 44.239L24.4445 42.0593L23.9289 36.282H16.6562L17.6711 47.6562L32.5094 51.7765L32.5445 51.7671V44.2296Z" fill="#EBEBEB"/>
<path d="M41.4695 32.354L40.5977 42.0548L32.5188 44.2345V51.772L47.3688 47.6564L47.4789 46.4329L48.7375 32.354H41.4695Z" fill="white"/>
<path d="M32.5258 10.7539V17.9984H15.0273L14.882 16.3695L14.5516 12.6969L14.3781 10.7539H32.5258ZM32.5 25.4164V32.6609H24.5336L24.3883 31.032L24.0602 27.3594L23.8867 25.4164H32.5Z" fill="#EBEBEB"/>
</g>
<defs>
<clipPath id="clip0_8_349">
<rect width="65" height="65" fill="white"/>
</clipPath>
</defs>
</svg>
