<svg width="45" height="45" viewBox="0 0 45 45" fill="none" xmlns="http://www.w3.org/2000/svg">
<g clip-path="url(#clip0_55_3)">
<path d="M0 11.3238V16.25H7.035L0 11.3238ZM5.83 38.75H16.25V31.4538L5.83 38.75ZM28.75 31.455V38.75H39.1687L28.75 31.455ZM0 28.75V33.6763L7.0375 28.75H0ZM39.1712 6.25H28.75V13.5462L39.1712 6.25ZM45 33.6775V28.75H37.9613L45 33.6775ZM45 16.25V11.3238L37.9637 16.25H45ZM16.25 6.25H5.83L16.25 13.5462V6.25Z" fill="#00247D"/>
<path d="M31.425 28.75L43.565 37.2513C44.1569 36.6397 44.5828 35.8872 44.8025 35.065L35.7838 28.75H31.425ZM16.25 28.75H13.5738L1.43504 37.25C2.08629 37.9125 2.92129 38.3863 3.85754 38.6063L16.25 29.9288V28.75ZM28.75 16.25H31.4263L43.565 7.75C42.9021 7.07851 42.0627 6.60831 41.1438 6.39375L28.75 15.0713V16.25ZM13.5738 16.25L1.43504 7.75C0.842748 8.36142 0.416367 9.11394 0.196289 9.93625L9.21504 16.25H13.5738Z" fill="#CF1B2B"/>
<path d="M45 26.25H26.25V38.75H28.75V31.455L39.1687 38.75H40C40.664 38.7494 41.3212 38.6166 41.9333 38.3592C42.5453 38.1019 43.1001 37.7253 43.565 37.2513L31.425 28.75H35.7838L44.8025 35.065C44.9187 34.6437 45 34.2075 45 33.75V33.6775L37.9613 28.75H45V26.25ZM0 26.25V28.75H7.0375L0 33.6763V33.75C0 35.1138 0.54875 36.3475 1.435 37.25L13.5738 28.75H16.25V29.9288L3.8575 38.605C4.225 38.6925 4.605 38.75 5 38.75H5.83L16.25 31.4538V38.75H18.75V26.25H0ZM45 11.25C45.0012 9.9399 44.4855 8.68221 43.565 7.75L31.4263 16.25H28.75V15.0712L41.1438 6.39375C40.7693 6.3019 40.3855 6.25366 40 6.25H39.1712L28.75 13.5462V6.25H26.25V18.75H45V16.25H37.9637L45 11.3238V11.25ZM16.25 6.25V13.5462L5.83 6.25H5C4.33594 6.25076 3.67868 6.38379 3.06659 6.64133C2.4545 6.89887 1.89984 7.27576 1.435 7.75L13.5738 16.25H9.215L0.19625 9.93625C0.0726959 10.3635 0.00669699 10.8053 0 11.25L0 11.3238L7.035 16.25H0V18.75H18.75V6.25H16.25Z" fill="#EEEEEE"/>
<path d="M26.25 18.75V6.25H18.75V18.75H0V26.25H18.75V38.75H26.25V26.25H45V18.75H26.25Z" fill="#CF1B2B"/>
</g>
<defs>
<clipPath id="clip0_55_3">
<rect width="45" height="45" fill="white"/>
</clipPath>
</defs>
</svg>
