<svg width="255" height="267" viewBox="0 0 255 267" fill="none" xmlns="http://www.w3.org/2000/svg">
<g clip-path="url(#clip0_8_101)">
<path d="M241.656 248.055C241.656 258.057 187.56 266.165 120.828 266.165C54.0958 266.165 0 258.057 0 248.055C0 240.974 27.1161 234.84 66.6346 231.864C82.9308 230.634 101.343 229.944 120.828 229.944C128.838 229.944 136.664 230.061 144.233 230.283C199.764 231.919 241.656 239.253 241.656 248.055Z" fill="#3F3D56"/>
<path opacity="0.1" d="M105.237 251.755C130.853 251.755 151.619 249.226 151.619 246.107C151.619 242.988 130.853 240.46 105.237 240.46C79.6209 240.46 58.8549 242.988 58.8549 246.107C58.8549 249.226 79.6209 251.755 105.237 251.755Z" fill="black"/>
<path d="M105.042 250.197C129.259 250.197 148.891 229.272 148.891 203.46C148.891 177.648 129.259 156.723 105.042 156.723C80.8252 156.723 61.1935 177.648 61.1935 203.46C61.1935 229.272 80.8252 250.197 105.042 250.197Z" fill="#E9AD35"/>
<path d="M154.543 237.15L152.984 245.718L163.118 247.276L169.744 243.381L169.354 237.15H154.543Z" fill="#575A89"/>
<path d="M103.483 76.2969C103.483 76.2969 102.704 85.2548 100.755 85.6443C98.806 86.0337 105.042 101.613 105.042 101.613H114.397L121.802 99.6653L118.294 91.0969C118.294 91.0969 113.617 84.8653 117.125 79.8022C120.633 74.739 103.483 76.2969 103.483 76.2969Z" fill="#A0616A"/>
<path opacity="0.1" d="M103.483 76.2969C103.483 76.2969 102.704 85.2548 100.755 85.6443C98.806 86.0337 105.042 101.613 105.042 101.613H114.397L121.802 99.6653L118.294 91.0969C118.294 91.0969 113.617 84.8653 117.125 79.8022C120.633 74.739 103.483 76.2969 103.483 76.2969Z" fill="black"/>
<path d="M83.9948 144.844C83.9948 144.844 73.8609 164.318 82.046 168.213C90.2311 172.107 92.18 171.718 92.18 172.886C92.18 174.055 90.6209 173.665 91.4004 175.613C92.18 177.56 89.8414 185.35 92.18 190.023C94.5186 194.697 93.739 198.202 93.739 198.202C93.739 198.202 93.739 198.592 94.5186 200.15C95.2981 201.707 95.6879 202.876 95.2981 203.655C94.9083 204.434 92.5697 209.497 94.9083 210.665C97.2469 211.834 109.33 212.613 110.499 210.665C111.668 208.718 109.33 207.55 110.499 206.381C111.668 205.213 112.448 204.823 111.668 204.044C110.889 203.265 110.109 193.529 110.109 193.529C110.109 193.529 112.058 182.234 111.279 180.676C110.499 179.118 109.33 177.56 110.109 176.392C110.889 175.223 111.668 175.613 112.058 174.055C112.448 172.497 113.227 168.992 113.227 168.992L117.515 168.602L127.649 170.55C127.649 170.55 138.952 183.013 151.425 186.907C151.425 186.907 154.932 190.413 156.102 190.413C157.271 190.413 157.271 190.413 156.881 191.192C156.492 191.971 155.322 191.971 156.102 192.75C156.881 193.529 158.051 192.36 157.271 193.529C156.492 194.697 155.712 194.697 156.492 195.476C157.271 196.255 156.102 200.539 156.102 200.929C156.102 201.318 152.594 237.929 153.763 238.707C154.932 239.486 171.303 241.823 172.472 238.707C173.641 235.592 171.692 231.697 171.692 231.697C171.692 231.697 177.539 184.96 175.98 181.844C174.421 178.729 168.964 164.707 139.732 155.75C139.732 155.75 131.546 154.192 131.546 153.023C131.546 151.855 130.767 144.455 129.208 144.065C127.649 143.676 118.684 143.286 118.684 143.286L107.381 146.792L91.7902 144.065L83.9948 144.844Z" fill="#2F2E41"/>
<path d="M97.6367 210.276L95.6879 217.286C95.6879 217.286 94.1288 228.581 96.0776 231.307C97.6084 233.449 100.342 236.071 105.41 236.531C106.831 236.661 108.253 236.303 109.443 235.516C110.632 234.728 111.516 233.559 111.95 232.201C112.008 232.039 112.045 231.869 112.058 231.697C112.058 230.918 110.889 221.571 110.889 221.571L108.94 211.834L108.55 209.107L97.6367 210.276Z" fill="#2F2E41"/>
<path d="M154.543 243.771C154.543 243.771 152.594 241.823 152.204 243.771C151.814 245.718 150.255 253.897 152.984 254.286C155.712 254.676 181.826 258.571 184.555 257.013C187.283 255.455 192.35 253.118 189.232 251.95C186.114 250.781 177.149 247.276 177.149 247.276C177.149 247.276 172.082 240.655 171.303 240.265C170.523 239.876 166.236 240.655 164.287 242.213C162.338 243.771 154.543 243.771 154.543 243.771Z" fill="#2F2E41"/>
<path d="M112.838 84.4759C119.511 84.4759 124.92 79.0703 124.92 72.4022C124.92 65.7341 119.511 60.3285 112.838 60.3285C106.164 60.3285 100.755 65.7341 100.755 72.4022C100.755 79.0703 106.164 84.4759 112.838 84.4759Z" fill="#A0616A"/>
<path d="M111.668 99.6653L106.991 94.6021L101.807 84.4758C101.807 84.4758 98.0265 83.3074 97.2469 85.2548C96.4674 87.2021 82.4358 93.4337 82.4358 93.4337C82.4358 93.4337 85.9437 126.15 84.3846 129.265C82.8255 132.381 80.0972 144.844 82.4358 146.013C84.7744 147.181 95.6879 146.013 99.1958 147.571C102.704 149.128 112.838 149.128 115.566 147.181C118.294 145.234 119.074 143.676 121.802 144.844C124.125 145.839 129.555 111.832 131.118 101.698C131.25 100.847 131.141 99.9758 130.803 99.1836C130.465 98.3913 129.911 97.7095 129.205 97.2152C125.708 94.7639 119.409 90.5398 118.294 91.0969C116.735 91.8758 111.668 99.6653 111.668 99.6653Z" fill="#575A89"/>
<path d="M128.428 98.1074C129.344 98.3361 130.167 98.8391 130.788 99.5489C131.409 100.259 131.797 101.141 131.901 102.078L135.054 130.434C135.054 130.434 127.259 147.181 123.361 135.886C119.464 124.592 128.428 98.1074 128.428 98.1074Z" fill="#575A89"/>
<path d="M127.649 133.16L136.224 130.823C136.224 130.823 137.783 141.729 139.342 141.729C140.901 141.729 133.885 147.96 130.377 147.181C126.869 146.402 121.802 143.676 121.412 141.729C121.023 139.781 124.92 131.602 124.92 131.602L127.649 133.16Z" fill="#575A89"/>
<path d="M103.716 77.6106C104.538 75.8003 104.395 73.6887 105.075 71.8205C105.438 70.8201 106.029 69.9173 106.799 69.1826C107.57 68.4478 108.5 67.9011 109.517 67.5851C110.534 67.2691 111.611 67.1923 112.663 67.3608C113.714 67.5293 114.713 67.9385 115.58 68.5564C116.454 69.1789 117.33 70.0536 118.396 69.9347C119.545 69.8068 120.569 68.5264 121.625 68.9957C122.796 69.5157 122.48 71.6117 123.665 72.0958C124.289 72.3506 125.027 71.9582 125.387 71.3886C125.702 70.79 125.873 70.1266 125.888 69.4505C126.052 67.7894 126.2 66.0313 125.479 64.5256C125.175 64.0153 124.911 63.4828 124.688 62.9327C124.562 62.419 124.511 61.8897 124.538 61.3614C124.531 59.4089 124.389 57.3724 123.405 55.6852C122.314 53.8129 120.297 52.6157 118.193 52.0933C116.088 51.5709 113.884 51.651 111.723 51.8338C108.152 52.1359 104.427 52.7836 101.613 55.0022C101.231 55.2813 100.902 55.6269 100.642 56.0224C100.395 56.4922 100.22 56.9966 100.124 57.5186C99.5155 59.9941 98.6034 62.385 97.4081 64.637C96.8332 65.5917 96.3633 66.6058 96.0067 67.6615C95.7083 68.7342 95.7285 69.9568 96.3531 70.8789C96.8617 71.6295 97.6747 72.0296 98.3134 72.6433C98.9464 73.2515 99.2425 74.421 99.9436 74.8815C100.556 75.2835 101.289 74.9998 101.913 75.4258C102.715 75.9729 102.772 77.1723 103.716 77.6106Z" fill="#2F2E41"/>
<path d="M113.617 105.507L114.786 103.171C114.786 103.171 131.936 108.234 135.444 112.907C135.444 112.907 144.019 107.455 148.696 108.234L153.373 109.013L138.952 121.865L120.633 120.307L113.617 105.507Z" fill="#F2F2F2"/>
<path d="M112.838 103.171L96.8572 125.371L119.853 136.665C119.853 136.665 122.003 137.834 123.657 136.665L138.952 129.655L153.373 109.013L138.952 116.413C138.952 116.413 137.393 113.297 134.275 114.855L112.838 103.171Z" fill="#E9AD35"/>
<path d="M137.393 142.507L140.511 134.328C140.511 134.328 147.527 125.371 143.629 121.086C139.732 116.802 135.444 133.55 135.444 133.55L137.393 142.507Z" fill="#A0616A"/>
<path d="M101.417 141.202L108.22 135.69C108.22 135.69 118.787 131.459 117.566 125.799C116.346 120.139 104.228 132.476 104.228 132.476L101.417 141.202Z" fill="#A0616A"/>
<path opacity="0.1" d="M84.5795 101.807H84.1897C84.1897 101.807 78.1483 94.6021 76.979 104.339C75.8097 114.076 71.9121 146.402 82.046 147.571C92.1799 148.739 99.3906 142.702 99.3906 142.702C99.3906 142.702 106.796 131.407 104.068 131.407C102.748 131.407 99.1574 130.815 95.8827 131.018C92.3894 131.235 89.2504 132.218 89.4516 131.213C89.8413 129.265 95.493 104.534 84.5795 101.807Z" fill="black"/>
<path d="M83.9949 94.2127L82.4358 93.4337C82.4358 93.4337 76.1995 94.6021 75.0302 104.339C73.8609 114.076 69.9632 146.402 80.0972 147.571C90.2311 148.739 103.873 146.013 103.873 146.013C103.873 146.013 106.601 131.213 103.873 131.213C101.145 131.213 87.113 133.16 87.5028 131.213C87.8925 129.265 94.9083 96.939 83.9949 94.2127Z" fill="#575A89"/>
<path d="M131.741 138.029L136.039 131.446L138.757 142.313L131.741 145.429V138.029Z" fill="#575A89"/>
</g>
<defs>
<clipPath id="clip0_8_101">
<rect width="255" height="265.665" fill="white" transform="translate(0 0.5)"/>
</clipPath>
</defs>
</svg>
