<svg width="383" height="255" viewBox="0 0 383 255" fill="none" xmlns="http://www.w3.org/2000/svg">
<g clip-path="url(#clip0_11_768)">
<path d="M181.775 130.083H164.985L166.276 116.307H179.622L181.775 130.083Z" fill="#A0616A"/>
<path opacity="0.1" d="M181.775 130.083H164.985L166.276 116.307H179.622L181.775 130.083Z" fill="black"/>
<path d="M307.44 245.514C307.44 245.714 307.278 245.876 307.078 245.876H56.4349V245.152H307.078C307.278 245.152 307.44 245.314 307.44 245.514Z" fill="#E6E6E6"/>
<path d="M157.682 230.185L160.504 242.847L169.339 241.62L166.885 228.614L157.682 230.185Z" fill="#A0616A"/>
<path d="M205.044 230.185L202.222 242.847L193.387 241.62L195.841 228.614L205.044 230.185Z" fill="#A0616A"/>
<path d="M221.752 201.096L205.852 152.664C202.295 141.829 192.181 134.504 180.778 134.504C168.093 134.504 157.203 143.528 154.846 155.992L146.053 202.491C144.793 209.149 149.757 215.319 156.455 215.595V247.387H158.909V215.608H210.443V247.387H212.897V215.482C219.526 214.499 223.924 207.712 221.752 201.096Z" fill="#CCCCCC"/>
<path d="M188.848 168.124L158.909 169.105C158.909 169.105 147.621 189.228 167.498 191.927C187.375 194.627 204.798 191.682 205.535 183.093C206.271 174.504 200.136 167.878 188.848 168.124Z" fill="#2F2E41"/>
<path d="M164.553 170.332C164.553 170.332 153.265 171.559 152.284 174.749C151.302 177.94 150.811 191.927 150.811 191.927L155.228 232.418L167.744 230.945L165.044 192.173L179.523 188.982L164.553 170.332Z" fill="#2F2E41"/>
<path d="M162.099 237.08C162.099 237.08 158.386 234.626 157.421 235.73C156.455 236.835 151.302 242.233 151.302 242.233L142.222 247.878C142.222 247.878 134.37 255.239 145.413 254.994C156.455 254.749 162.099 251.424 162.099 251.424C162.099 251.424 172.652 251.313 172.406 248.368C172.161 245.424 168.6 237.706 168.6 237.706L162.099 237.08Z" fill="#2F2E41"/>
<path d="M198.173 170.332C198.173 170.332 209.461 171.559 210.443 174.749C211.424 177.94 211.915 191.927 211.915 191.927L207.498 232.418L194.983 230.945L197.682 192.173L183.204 188.982L198.173 170.332Z" fill="#2F2E41"/>
<path d="M200.627 237.08C200.627 237.08 204.341 234.626 205.306 235.73C206.271 236.835 211.424 242.233 211.424 242.233L220.504 247.878C220.504 247.878 228.357 255.239 217.314 254.994C206.271 254.749 200.627 251.424 200.627 251.424C200.627 251.424 190.075 251.313 190.32 248.368C190.566 245.424 194.126 237.706 194.126 237.706L200.627 237.08Z" fill="#2F2E41"/>
<path d="M180.013 122.971H165.768L154.983 127.879L157.437 160.271C157.437 160.271 154.378 170.119 158.116 170.716C161.854 171.314 182.467 174.995 188.111 171.805C193.756 168.614 198.663 169.596 198.663 169.596L192.038 126.652L180.013 122.971Z" fill="#3F3D56"/>
<path d="M173.265 121.621C180.584 121.621 186.516 115.688 186.516 108.37C186.516 101.051 180.584 95.1182 173.265 95.1182C165.946 95.1182 160.014 101.051 160.014 108.37C160.014 115.688 165.946 121.621 173.265 121.621Z" fill="#A0616A"/>
<path d="M159.632 110.539L161.921 113.523L165.072 109.106C165.072 109.106 165.334 113.032 173.997 111.56C182.66 110.087 184.76 109.597 184.76 109.597L185.81 114.014C185.81 114.014 186.86 111.069 186.86 109.106C186.86 107.143 193.16 102.48 186.598 98.5537C180.035 94.6273 183.447 90.9464 175.309 91.1918C167.172 91.4372 162.184 91.1918 161.396 94.1366C160.609 97.0813 158.771 100.762 159.034 103.952C159.296 107.143 159.632 110.539 159.632 110.539Z" fill="#2F2E41"/>
<path d="M184.702 168.635C181.511 169.694 178.379 168.907 177.705 166.877C177.031 164.846 179.07 162.342 182.262 161.282C183.531 160.842 184.887 160.711 186.217 160.902L199.791 156.583L201.682 162.996L188.1 166.573C187.148 167.522 185.983 168.229 184.702 168.635Z" fill="#A0616A"/>
<path d="M122.507 154.292C119.452 152.888 117.7 150.175 118.594 148.231C119.487 146.287 122.688 145.849 125.743 147.254C126.971 147.798 128.051 148.629 128.893 149.676L141.76 155.787L138.764 161.764L126.397 155.105C125.054 155.149 123.72 154.87 122.507 154.292Z" fill="#A0616A"/>
<path d="M154.939 127.81C154.939 127.81 160.044 129.893 159.886 135.455C159.728 141.016 155.825 148.788 155.825 148.788C155.825 148.788 155.552 166.333 150.755 168.232C145.958 170.131 131.135 157.96 131.135 157.96L134.558 151.42L140.957 150.681L154.939 127.81Z" fill="#3F3D56"/>
<path d="M188.357 127.633C188.357 127.633 193.51 125.67 197.191 129.842C200.872 134.013 203.326 142.357 203.326 142.357C203.326 142.357 215.105 155.363 212.897 160.025C210.688 164.688 191.547 165.915 191.547 165.915L189.584 158.798L193.756 153.891L188.357 127.633Z" fill="#3F3D56"/>
<path d="M201.693 176.099H159.806C157.463 176.099 155.557 174.193 155.557 171.85V147.465C155.557 145.122 157.463 143.216 159.806 143.216H201.693C204.036 143.216 205.942 145.122 205.942 147.465V171.85C205.942 174.193 204.036 176.099 201.693 176.099Z" fill="#E9AD35"/>
<path d="M101.354 151.472L112.948 148.776L113.779 151.185L119.389 149.67L123.088 148.67L126.681 141.69L124.132 134.301L116.54 134.229L114.219 134.686L107.744 135.96C107.195 136.866 107.495 138.046 108.409 138.582L108.709 138.758L99.5988 140.335C99.5988 140.335 96.6888 145.514 101.354 151.472Z" fill="#3F3D56"/>
<path d="M114.219 134.686L119.389 149.67L123.088 148.67L126.681 141.69L124.132 134.301L116.54 134.229L114.219 134.686Z" fill="#2F2E41"/>
<path d="M112.258 135.31C113.056 135.134 113.631 134.667 113.543 134.268C113.454 133.869 112.736 133.689 111.938 133.865C111.14 134.042 110.564 134.509 110.653 134.908C110.741 135.307 111.46 135.487 112.258 135.31Z" fill="#3F3D56"/>
<path d="M298.033 130.123H227.409C224.566 130.123 222.253 127.81 222.253 124.967V71.5633C222.253 68.7204 224.566 66.4072 227.409 66.4072H298.033C300.876 66.4072 303.189 68.7204 303.189 71.5633V124.967C303.189 127.81 300.876 130.123 298.033 130.123Z" fill="white"/>
<path d="M298.033 130.123H227.409C224.566 130.123 222.253 127.81 222.253 124.967V71.5633C222.253 68.7204 224.566 66.4072 227.409 66.4072H298.033C300.876 66.4072 303.189 68.7204 303.189 71.5633V124.967C303.189 127.81 300.876 130.123 298.033 130.123ZM227.409 67.2682C225.041 67.2682 223.114 69.195 223.114 71.5633V124.967C223.114 127.335 225.041 129.262 227.409 129.262H298.033C300.401 129.262 302.328 127.335 302.328 124.967V71.5633C302.328 69.195 300.401 67.2682 298.033 67.2682H227.409Z" fill="#3F3D56"/>
<path d="M290.274 72.8649C290.987 72.8649 291.565 72.2867 291.565 71.5734C291.565 70.8601 290.987 70.2819 290.274 70.2819C289.56 70.2819 288.982 70.8601 288.982 71.5734C288.982 72.2867 289.56 72.8649 290.274 72.8649Z" fill="#3F3D56"/>
<path d="M293.718 72.8649C294.431 72.8649 295.009 72.2867 295.009 71.5734C295.009 70.8601 294.431 70.2819 293.718 70.2819C293.004 70.2819 292.426 70.8601 292.426 71.5734C292.426 72.2867 293.004 72.8649 293.718 72.8649Z" fill="#3F3D56"/>
<path d="M297.162 72.8649C297.875 72.8649 298.453 72.2867 298.453 71.5734C298.453 70.8601 297.875 70.2819 297.162 70.2819C296.448 70.2819 295.87 70.8601 295.87 71.5734C295.87 72.2867 296.448 72.8649 297.162 72.8649Z" fill="#3F3D56"/>
<path d="M229.572 92.4531C229.215 92.4531 228.926 92.7428 228.926 93.0989C228.926 93.2725 228.993 93.4331 229.115 93.5517C229.237 93.6774 229.398 93.7447 229.572 93.7447H296.301C296.657 93.7447 296.946 93.455 296.946 93.0989C296.946 92.9253 296.879 92.7646 296.758 92.6461C296.635 92.5204 296.474 92.4531 296.301 92.4531H229.572Z" fill="#E6E6E6"/>
<path d="M284.246 92.2379V93.96H229.572C229.335 93.96 229.12 93.8652 228.965 93.7059C228.805 93.551 228.711 93.3357 228.711 93.0989C228.711 92.6254 229.098 92.2379 229.572 92.2379H284.246Z" fill="#E9AD35"/>
<path d="M295.224 89.009H286.614C285.665 89.009 284.892 88.2367 284.892 87.287C284.892 86.3373 285.665 85.5649 286.614 85.5649H295.224C296.174 85.5649 296.947 86.3373 296.947 87.287C296.947 88.2367 296.174 89.009 295.224 89.009Z" fill="#E6E6E6"/>
<path d="M238.828 79.9683H230.217C229.268 79.9683 228.495 79.1959 228.495 78.2462C228.495 77.2965 229.268 76.5242 230.217 76.5242H238.828C239.777 76.5242 240.55 77.2965 240.55 78.2462C240.55 79.1959 239.777 79.9683 238.828 79.9683Z" fill="#E6E6E6"/>
<path d="M229.572 111.826C229.215 111.826 228.926 112.116 228.926 112.472C228.926 112.646 228.993 112.806 229.115 112.925C229.237 113.05 229.398 113.118 229.572 113.118H296.301C296.657 113.118 296.946 112.828 296.946 112.472C296.946 112.298 296.879 112.138 296.758 112.019C296.635 111.893 296.474 111.826 296.301 111.826H229.572Z" fill="#E6E6E6"/>
<path d="M251.097 111.611V113.333H229.572C229.335 113.333 229.12 113.238 228.965 113.079C228.805 112.924 228.711 112.709 228.711 112.472C228.711 111.998 229.098 111.611 229.572 111.611H251.097Z" fill="#E9AD35"/>
<path d="M295.224 108.382H286.614C285.665 108.382 284.892 107.61 284.892 106.66C284.892 105.71 285.665 104.938 286.614 104.938H295.224C296.174 104.938 296.947 105.71 296.947 106.66C296.947 107.61 296.174 108.382 295.224 108.382Z" fill="#E6E6E6"/>
</g>
<defs>
<clipPath id="clip0_11_768">
<rect width="382.492" height="255" fill="white"/>
</clipPath>
</defs>
</svg>
