<svg width="255" height="241" viewBox="0 0 255 241" fill="none" xmlns="http://www.w3.org/2000/svg">
<g clip-path="url(#clip0_8_36)">
<path d="M185.131 136.69V202.989L196.226 221.062L197.071 222.436H240.849L241.734 136.69H185.131Z" fill="#E6E6E6"/>
<path opacity="0.1" d="M185.131 136.69V202.989L196.226 221.062L196.907 136.69H185.131Z" fill="black"/>
<path d="M79.4436 134.922V201.221L68.3485 219.294L67.5041 220.668H23.7256L22.841 134.922H79.4436Z" fill="#E6E6E6"/>
<path opacity="0.1" d="M79.4436 134.922V201.221L68.3485 219.294L67.6676 134.922H79.4436Z" fill="black"/>
<path d="M255 133.596V137.574H17.0923V131.828L39.2026 120.336H235.543L255 133.596Z" fill="#E6E6E6"/>
<path opacity="0.1" d="M255 133.596V137.574H17.0923V131.828L255 133.596Z" fill="black"/>
<path d="M51.1425 153.486H40.5293L36.1072 150.392H56.0067L51.1425 153.486Z" fill="#3F3D56"/>
<path d="M51.1425 166.304H40.5293L36.1072 163.21H56.0067L51.1425 166.304Z" fill="#3F3D56"/>
<path d="M51.1425 184.425H40.5293L36.1072 181.331H56.0067L51.1425 184.425Z" fill="#3F3D56"/>
<path d="M51.1425 202.547H40.5293L36.1072 199.453H56.0067L51.1425 202.547Z" fill="#3F3D56"/>
<path d="M213.432 155.254H224.046L228.468 152.16H208.568L213.432 155.254Z" fill="#3F3D56"/>
<path d="M213.432 168.071H224.046L228.468 164.978H208.568L213.432 168.071Z" fill="#3F3D56"/>
<path d="M213.432 186.193H224.046L228.468 183.099H208.568L213.432 186.193Z" fill="#3F3D56"/>
<path d="M213.432 204.315H224.046L228.468 201.221H208.568L213.432 204.315Z" fill="#3F3D56"/>
<path d="M220.66 43.6689H131.313C130.869 43.6689 130.43 43.7562 130.02 43.9259C129.61 44.0956 129.237 44.3444 128.924 44.658C128.61 44.9716 128.361 45.344 128.191 45.7538C128.021 46.1635 127.934 46.6027 127.934 47.0463V107.203C127.934 107.646 128.021 108.086 128.191 108.495C128.361 108.905 128.61 109.278 128.924 109.591C129.237 109.905 129.61 110.154 130.02 110.323C130.43 110.493 130.869 110.58 131.313 110.58H165.23L163.959 118.689C163.959 118.689 156.697 122.545 161.803 122.658C166.909 122.772 190.964 122.658 190.964 122.658C190.964 122.658 195.616 122.658 188.241 118.576L187.045 110.58H220.66C221.103 110.58 221.543 110.493 221.953 110.323C222.363 110.154 222.735 109.905 223.049 109.591C223.363 109.278 223.612 108.905 223.782 108.495C223.951 108.086 224.039 107.646 224.039 107.203V47.0463C224.039 46.6027 223.951 46.1635 223.782 45.7538C223.612 45.344 223.363 44.9716 223.049 44.658C222.735 44.3444 222.363 44.0956 221.953 43.9259C221.543 43.7562 221.103 43.6689 220.66 43.6689Z" fill="#3F3D56"/>
<path d="M220.805 47.2413H131.168V97.3681H220.805V47.2413Z" fill="#F2F2F2"/>
<path d="M175.986 46.2206C176.3 46.2206 176.554 45.9668 176.554 45.6536C176.554 45.3404 176.3 45.0865 175.986 45.0865C175.673 45.0865 175.419 45.3404 175.419 45.6536C175.419 45.9668 175.673 46.2206 175.986 46.2206Z" fill="#F2F2F2"/>
<path d="M175.986 108.142C177.177 108.142 178.142 107.177 178.142 105.987C178.142 104.797 177.177 103.832 175.986 103.832C174.796 103.832 173.831 104.797 173.831 105.987C173.831 107.177 174.796 108.142 175.986 108.142Z" fill="#F2F2F2"/>
<path d="M172.627 128.782V129.917H111.583V129.009L111.667 128.782L113.171 124.7H171.379L172.627 128.782Z" fill="#3F3D56"/>
<path d="M196.119 127.672C196.008 128.147 195.588 128.649 194.639 129.123C191.235 130.824 184.314 128.669 184.314 128.669C184.314 128.669 178.981 127.762 178.981 125.38C179.131 125.278 179.287 125.185 179.448 125.102C180.88 124.346 185.625 122.478 194.038 125.181C194.658 125.376 195.212 125.738 195.638 126.229C195.826 126.414 195.968 126.642 196.052 126.893C196.135 127.144 196.158 127.411 196.119 127.672Z" fill="#3F3D56"/>
<path opacity="0.1" d="M196.119 127.672C191.952 129.268 188.239 129.387 184.427 126.741C182.986 125.676 181.241 125.102 179.448 125.102C180.88 124.346 185.625 122.478 194.038 125.181C194.658 125.376 195.212 125.738 195.637 126.229C195.826 126.414 195.968 126.642 196.052 126.893C196.135 127.144 196.158 127.411 196.119 127.672Z" fill="black"/>
<path d="M190.895 126.741C191.709 126.741 192.37 126.538 192.37 126.287C192.37 126.037 191.709 125.834 190.895 125.834C190.08 125.834 189.42 126.037 189.42 126.287C189.42 126.538 190.08 126.741 190.895 126.741Z" fill="#F2F2F2"/>
<path opacity="0.1" d="M172.627 128.782V129.917H111.583V129.009L111.667 128.782H172.627Z" fill="black"/>
<path d="M33.9414 0.500029C33.3218 0.449188 32.7015 0.587703 32.1625 0.89722C31.6332 1.25947 31.2997 1.89409 30.9592 2.48465C29.6574 4.76953 27.895 6.75929 25.7837 8.32788C24.2459 9.45391 22.2908 10.8579 22.5539 12.934C22.6927 13.6196 22.9461 14.277 23.3035 14.8784C24.7221 17.7408 28.5934 19.9528 28.2127 23.219C29.6221 20.8605 27.7369 19.6943 29.1463 17.3359C29.8176 16.2127 30.9836 14.9449 31.997 15.6502C32.3364 15.8864 32.5592 16.31 32.9125 16.5172C33.7555 17.0117 34.6524 16.0664 35.3987 15.3968C37.972 13.0879 41.6314 13.6928 44.8336 14.4122C46.3454 14.7518 48.0059 15.1974 48.8995 16.6416C50.0745 18.5403 47.7832 20.591 47.2043 22.7378C47.157 22.9207 47.1548 23.1123 47.1978 23.2963C47.2407 23.4803 47.3277 23.6511 47.4511 23.7942C47.5746 23.9372 47.7308 24.0483 47.9066 24.1178C48.0823 24.1874 48.2723 24.2134 48.4603 24.1935C49.4211 24.0988 50.5593 24.0212 50.6162 23.5997C51.8251 23.6427 53.3063 23.5059 53.8243 22.2477C53.9826 21.7499 54.0663 21.2315 54.0726 20.7092C54.2627 18.5957 55.1601 16.6676 55.7546 14.6562C56.3491 12.6447 56.6076 10.2873 55.6044 8.50394C55.2463 7.91058 54.8035 7.37264 54.2899 6.90716C48.5964 1.40005 41.1107 0.491854 33.9414 0.500029Z" fill="#2F2E41"/>
<path d="M29.4509 27.3444C29.4509 27.3444 30.6891 37.658 26.1489 38.4831C21.6087 39.3081 30.2764 53.3346 30.2764 53.3346L50.9137 55.8098L45.9607 39.3081C45.9607 39.3081 42.6588 38.0705 44.7225 29.8197C46.7862 21.5688 29.4509 27.3444 29.4509 27.3444Z" fill="#FFB8B8"/>
<path d="M16.8621 204.531L18.5133 227.222H27.1806L24.7044 204.531H16.8621Z" fill="#FFB8B8"/>
<path d="M80.425 161.627L81.663 180.604L91.1565 176.479L87.4415 160.802L80.425 161.627Z" fill="#FFB8B8"/>
<path d="M10.671 117.898C10.671 117.898 11.0837 141.825 13.5602 149.663C16.0367 157.502 15.6239 157.914 15.2112 159.152C14.7984 160.389 14.3857 159.564 14.3857 161.627C14.3857 163.69 13.5602 196.281 14.3857 199.168C15.2112 202.056 11.9092 207.007 14.3857 207.419C16.8622 207.832 28.419 207.419 28.8318 204.944C29.2445 202.469 25.5298 201.644 27.1808 199.994C28.8318 198.343 31.3083 164.515 31.3083 164.515L37.0867 141L47.8181 128.624H70.5191L77.5358 155.851C77.5358 155.851 74.6465 163.69 76.7103 163.69C78.774 163.69 91.1564 166.165 91.1564 157.089C91.1564 148.013 87.0289 121.198 86.2034 120.373C85.3779 119.548 86.6162 116.66 85.3779 115.422C84.1397 114.185 69.6936 105.521 64.3279 103.871C58.9622 102.221 51.4351 100.257 51.4351 100.257L10.671 117.898Z" fill="#2F2E41"/>
<path d="M91.1564 173.178C91.1564 173.178 84.9652 171.116 82.0759 177.304C79.1867 183.492 80.425 185.142 80.425 185.142C80.425 185.142 89.9181 188.442 91.5691 186.792C92.2874 186.074 94.5683 185.825 96.9161 185.772C100.492 185.692 101.443 180.635 98.0662 179.458C97.9655 179.423 97.8635 179.392 97.7603 179.366C94.4583 178.541 91.1564 173.178 91.1564 173.178Z" fill="#2F2E41"/>
<path d="M38.7377 34.1514C45.5763 34.1514 51.12 28.6103 51.12 21.7751C51.12 14.9399 45.5763 9.3988 38.7377 9.3988C31.8991 9.3988 26.3553 14.9399 26.3553 21.7751C26.3553 28.6103 31.8991 34.1514 38.7377 34.1514Z" fill="#FFB8B8"/>
<path d="M22.6406 43.6399C22.6406 43.6399 42.8651 47.7653 47.8181 41.1646C52.771 34.5639 54.8347 59.729 54.8347 59.729L57.3112 86.1318L53.5965 100.571C53.5965 100.571 34.1975 116.247 28.0063 117.485C21.8151 118.723 12.3219 119.548 12.3219 119.548C12.3219 119.548 15.2112 73.7555 15.2112 72.9304C15.2112 72.1053 22.6406 43.6399 22.6406 43.6399Z" fill="#E9AD35"/>
<path d="M28.7913 35.9027C28.7913 35.9027 24.2916 33.3263 23.0533 35.8015C21.8151 38.2768 10.2582 44.4649 9.01997 44.4649C7.78173 44.4649 11.4964 78.706 9.84546 82.8314C8.19448 86.9568 0.352314 117.072 4.89252 119.548C9.43272 122.023 6.13075 117.072 10.671 123.261C15.2112 129.449 37.4994 129.449 38.7377 126.973C39.9759 124.498 28.8318 105.934 30.8955 88.607C32.9592 71.2802 36.2612 47.3527 33.372 44.0524C30.4827 40.752 28.7913 35.9027 28.7913 35.9027Z" fill="#2F2E41"/>
<path d="M43.6906 38.6893L44.2655 36.7118C44.2655 36.7118 61.4387 42.4022 62.2642 46.1151C63.0897 49.828 62.6769 75.8182 59.7877 77.8809C56.8985 79.9436 52.771 83.2439 55.6602 88.1944C58.5495 93.145 61.8514 98.508 64.3279 98.9206C66.8044 99.3331 71.3446 102.221 70.1063 105.109C68.8681 107.996 54.0093 102.633 54.0093 102.633C54.0093 102.633 44.1034 95.2077 44.5161 83.6565C44.9289 72.1053 43.6906 38.6893 43.6906 38.6893Z" fill="#2F2E41"/>
<path d="M58.1367 87.3694L48.2308 105.934C48.2308 105.934 33.7847 120.785 42.0396 122.436C50.2946 124.086 54.8348 108.822 54.8348 108.822L65.5661 93.5575L58.1367 87.3694Z" fill="#FFB8B8"/>
<path d="M34.5445 3.73827C34.0455 3.70131 33.5455 3.79822 33.0965 4.019C32.6904 4.31541 32.3558 4.69874 32.1169 5.14099C31.016 6.79618 29.581 8.20294 27.9039 9.27094C26.652 10.0668 25.0605 11.0592 25.2747 12.5265C25.3909 13.0185 25.5979 13.4845 25.8849 13.9008C27.0437 15.9444 27.505 18.3096 27.199 20.6386L30.6412 15.6377C31.1876 14.8439 32.1368 13.9478 32.9618 14.4463C33.238 14.6133 33.4194 14.9127 33.707 15.0591C34.3933 15.4086 35.1234 14.7405 35.7309 14.2672C37.8256 12.6353 40.8046 13.0628 43.4113 13.5713C44.642 13.8113 45.9937 14.1263 46.7211 15.147C47.9301 16.8432 46.6677 19.2942 47.3733 21.2538C47.5708 21.1156 47.7385 20.9391 47.8666 20.7349C47.9946 20.5307 48.0803 20.3029 48.1186 20.065C49.1026 20.0954 50.3084 19.9987 50.7301 19.1094C50.8583 18.7609 50.9267 18.3932 50.9322 18.0219C51.087 16.5282 51.8175 15.1654 52.3015 13.7437C52.7854 12.322 52.9959 10.6559 52.1791 9.39538C51.8804 8.96829 51.5198 8.58794 51.1091 8.26678C46.4744 4.37439 40.3807 3.73249 34.5445 3.73827Z" fill="#2F2E41"/>
<path d="M58.1367 44.465L61.9823 45.4852C61.9823 45.4852 70.9318 68.3924 68.8681 84.0691C66.8044 99.7457 65.5661 96.4454 65.5661 96.4454C65.5661 96.4454 62.2642 89.0196 54.8347 90.6698L58.1367 44.465Z" fill="#2F2E41"/>
<path d="M17.434 224.223C16.4387 225.575 16.6382 227.507 15.7565 228.936C14.9923 230.174 13.552 230.823 12.5961 231.92C12.2911 232.285 12.0192 232.676 11.7836 233.089C10.8968 234.573 10.1761 236.476 11.0494 237.968C11.7519 239.169 13.2286 239.638 14.5829 239.958C16.2947 240.362 18.0732 240.686 19.8048 240.377C21.5363 240.068 23.2286 239.008 23.8459 237.362C23.9673 236.948 24.1115 236.541 24.278 236.144C25.2165 234.297 28.1603 234.277 29.1208 232.441C29.7929 231.157 29.175 229.604 28.5574 228.293L26.671 224.287C26.045 222.958 23.5073 223.722 22.1843 223.404C20.4588 222.989 18.6753 222.531 17.434 224.223Z" fill="#2F2E41"/>
<path d="M3.65427 95.6203L20.9896 122.436C20.9896 122.436 31.721 136.049 35.0229 129.861C38.3249 123.673 23.4661 113.36 23.4661 113.36L12.3219 92.7325L3.65427 95.6203Z" fill="#FFB8B8"/>
<path d="M12.3219 45.2901L9.01997 44.465C9.01997 44.465 2.41604 46.5277 0.765058 55.1911C-0.885923 63.8545 0.35231 98.5081 2.41604 98.9206C4.47977 99.3331 12.6088 92.8867 13.91 94.2535C15.2112 95.6203 11.0837 88.607 12.3219 84.8941C13.5601 81.1813 12.3219 45.2901 12.3219 45.2901Z" fill="#2F2E41"/>
<path d="M167.502 63.7047H156.834V66.2716H167.502V63.7047Z" fill="#E9AD35"/>
<path d="M204.445 63.7047H200.691V66.2716H204.445V63.7047Z" fill="#E9AD35"/>
<path d="M211.952 63.7047H208.198V66.2716H211.952V63.7047Z" fill="#E9AD35"/>
<path d="M196.74 63.7047H171.256V66.2716H196.74V63.7047Z" fill="#E9AD35"/>
<path d="M154.069 80.291H143.401V82.8579H154.069V80.291Z" fill="#E9AD35"/>
<path d="M191.011 80.291H187.258V82.8579H191.011V80.291Z" fill="#E9AD35"/>
<path d="M198.518 80.291H194.765V82.8579H198.518V80.291Z" fill="#E9AD35"/>
<path d="M183.307 80.291H157.822V82.8579H183.307V80.291Z" fill="#E9AD35"/>
<path d="M198.123 69.4308H187.455V71.9978H198.123V69.4308Z" fill="#E9AD35"/>
<path d="M212.544 69.4308H201.876V71.9978H212.544V69.4308Z" fill="#E9AD35"/>
<path d="M147.154 69.4308H143.401V71.9978H147.154V69.4308Z" fill="#E9AD35"/>
<path d="M154.661 69.4308H150.908V71.9978H154.661V69.4308Z" fill="#E9AD35"/>
<path d="M183.899 69.4308H158.415V71.9978H183.899V69.4308Z" fill="#E9AD35"/>
<path d="M175.997 74.9597H165.329V77.5266H175.997V74.9597Z" fill="#E9AD35"/>
<path d="M161.576 74.9597H150.908V77.5266H161.576V74.9597Z" fill="#E9AD35"/>
<path d="M147.154 74.9597H143.401V77.5266H147.154V74.9597Z" fill="#E9AD35"/>
<path d="M212.544 74.9597H208.791V77.5266H212.544V74.9597Z" fill="#E9AD35"/>
<path d="M205.037 74.9597H179.553V77.5266H205.037V74.9597Z" fill="#E9AD35"/>
</g>
<defs>
<clipPath id="clip0_8_36">
<rect width="255" height="240" fill="white" transform="translate(0 0.5)"/>
</clipPath>
</defs>
</svg>
