<svg width="24" height="25" viewBox="0 0 24 25" fill="none" xmlns="http://www.w3.org/2000/svg">
<path d="M6.4 5.26001C7.89032 3.7995 9.8968 2.98614 11.9834 2.99668C14.0701 3.00722 16.0682 3.84081 17.5437 5.3163C19.0192 6.79179 19.8528 8.78995 19.8633 10.8766C19.8739 12.9632 19.0605 14.9697 17.6 16.46L13.414 20.646C13.0389 21.021 12.5303 21.2316 12 21.2316C11.4697 21.2316 10.9611 21.021 10.586 20.646L6.4 16.46C4.91489 14.9747 4.08057 12.9604 4.08057 10.86C4.08057 8.75964 4.91489 6.74528 6.4 5.26001Z" stroke="#212121" stroke-width="1.5" stroke-linejoin="round"/>
<path d="M12 13.8599C13.6569 13.8599 15 12.5167 15 10.8599C15 9.20301 13.6569 7.85986 12 7.85986C10.3431 7.85986 9 9.20301 9 10.8599C9 12.5167 10.3431 13.8599 12 13.8599Z" stroke="#212121" stroke-width="1.5" stroke-linecap="round" stroke-linejoin="round"/>
</svg>
