<svg width="24" height="25" viewBox="0 0 24 25" fill="none" xmlns="http://www.w3.org/2000/svg">
<path d="M19.44 13.4999C19.22 13.4999 18.99 13.4299 18.77 13.3799C18.3244 13.2818 17.8866 13.1515 17.46 12.9899C16.9961 12.8211 16.4861 12.8299 16.0283 13.0145C15.5705 13.1991 15.1971 13.5465 14.98 13.9899L14.76 14.4399C13.7861 13.8978 12.8912 13.2249 12.1 12.4399C11.315 11.6487 10.642 10.7537 10.1 9.77987L10.52 9.49987C10.9634 9.28278 11.3108 8.9094 11.4954 8.45156C11.68 7.99372 11.6888 7.48378 11.52 7.01987C11.3603 6.59261 11.23 6.15492 11.13 5.70987C11.08 5.48987 11.04 5.25987 11.01 5.02987C10.8886 4.32549 10.5196 3.68761 9.96962 3.23111C9.41962 2.7746 8.7247 2.52948 8.01 2.53987H5.01C4.57903 2.53582 4.15225 2.62468 3.75871 2.8004C3.36517 2.97612 3.01411 3.23456 2.72943 3.55815C2.44475 3.88174 2.23314 4.26286 2.10899 4.67558C1.98484 5.0883 1.95108 5.52293 2.01 5.94987C2.54274 10.1392 4.45603 14.0317 7.44765 17.0125C10.4393 19.9933 14.3387 21.8924 18.53 22.4099H18.91C19.6474 22.4109 20.3594 22.1404 20.91 21.6499C21.2264 21.3669 21.4791 21.02 21.6515 20.6322C21.8239 20.2443 21.912 19.8243 21.91 19.3999V16.3999C21.8978 15.7053 21.6448 15.0364 21.1943 14.5075C20.7439 13.9786 20.1238 13.6225 19.44 13.4999ZM19.94 19.4999C19.9398 19.6419 19.9094 19.7822 19.8508 19.9115C19.7922 20.0408 19.7067 20.1562 19.6 20.2499C19.4886 20.3469 19.358 20.4193 19.2167 20.4624C19.0754 20.5054 18.9266 20.5182 18.78 20.4999C15.0349 20.0197 11.5562 18.3064 8.89272 15.6302C6.2292 12.954 4.53241 9.46721 4.07 5.71987C4.05466 5.57341 4.06889 5.42537 4.11183 5.28451C4.15478 5.14366 4.22557 5.01286 4.32 4.89987C4.41371 4.7932 4.52906 4.70771 4.65838 4.64909C4.7877 4.59046 4.92802 4.56005 5.07 4.55987H8.07C8.30255 4.55469 8.52962 4.63075 8.71215 4.77494C8.89467 4.91913 9.02121 5.12244 9.07 5.34987C9.11 5.6232 9.16 5.8932 9.22 6.15987C9.33511 6.68712 9.48885 7.20518 9.68 7.70987L8.28 8.35987C8.1603 8.41479 8.05262 8.49281 7.96316 8.58946C7.87369 8.68611 7.8042 8.79948 7.75867 8.92306C7.71314 9.04664 7.69247 9.178 7.69785 9.30959C7.70323 9.44118 7.73454 9.57041 7.79 9.68987C9.22991 12.7721 11.7077 15.25 14.79 16.6899C15.0335 16.7899 15.3065 16.7899 15.55 16.6899C15.6747 16.6453 15.7893 16.5763 15.8872 16.4871C15.985 16.3978 16.0642 16.29 16.12 16.1699L16.74 14.7699C17.2572 14.954 17.7848 15.1076 18.32 15.2299C18.5867 15.2899 18.8567 15.3399 19.13 15.3799C19.3574 15.4287 19.5607 15.5552 19.7049 15.7377C19.8491 15.9202 19.9252 16.1473 19.92 16.3799L19.94 19.4999Z" fill="black"/>
</svg>
